<svg width="73" height="73" viewBox="0 0 73 73" fill="none" xmlns="http://www.w3.org/2000/svg">
<path d="M62.5522 42.7775C59.7778 42.0652 55.1038 41.3028 53.3792 40.1281C52.6668 39.6407 52.7543 39.1033 52.8793 38.7284C53.0042 38.3784 53.7166 38.016 54.154 38.041C55.1413 38.0785 56.1286 38.291 57.0784 38.5534C59.1904 39.1283 61.29 39.7282 63.3645 40.4155C64.4643 40.7779 64.8142 41.6153 64.1769 42.1526C63.802 42.4651 63.452 42.7775 62.5522 42.7775Z" fill="#CD4631"/>
<path d="M18.8111 62.0861C18.9361 61.4238 19.1861 61.0738 19.5485 60.5615C20.9607 58.5869 22.4354 56.6498 23.8851 54.7127C23.9725 54.6002 24.0725 54.4752 24.185 54.3878C24.6849 53.9629 25.2473 53.463 25.8971 53.9254C26.547 54.4003 26.322 55.1001 25.9721 55.6625C24.5224 58.0245 23.0477 60.374 21.5481 62.711C21.3231 63.0734 20.9357 63.3859 20.5483 63.5733C19.586 64.0357 18.7361 63.3984 18.8111 62.0861Z" fill="#CD4631"/>
<path d="M50.0418 61.6488C50.0418 62.2112 49.6044 62.6111 49.2794 62.6736C48.842 62.7611 48.4671 62.6861 47.8423 62.2612C47.6298 62.1237 47.5048 61.7863 47.3798 61.5239C46.4675 59.5493 45.5427 57.5872 44.6554 55.6001C44.4305 55.1127 44.2055 54.5503 44.243 54.0379C44.2805 53.5755 44.5679 52.9132 44.9429 52.7507C45.3053 52.5882 45.7927 52.5383 46.3676 53.1006C46.58 53.3006 46.78 53.638 46.9174 53.9505C47.8173 56.0375 48.7171 58.1246 49.5919 60.2241C49.7543 60.624 49.8543 61.0615 50.0418 61.6488Z" fill="#CD4631"/>
<path d="M10.3755 44.4273C9.80067 44.2649 9.42575 43.9899 9.33827 43.615C9.22579 43.1401 9.46324 42.5027 9.73818 42.0528C9.95064 41.7154 10.438 41.503 10.8504 41.3655C12.9125 40.6781 14.9871 40.0033 17.0741 39.3659C17.4241 39.2534 17.874 39.2159 18.2114 39.3284C18.7613 39.5159 18.9987 39.9533 18.5488 40.4782C18.2989 40.7781 18.0114 41.0905 17.674 41.253C15.7244 42.2278 13.7623 43.1651 11.7877 44.0899C11.4253 44.2524 10.9379 44.6023 10.3755 44.4273Z" fill="#CD4631"/>
<path d="M52.7164 22.982C52.4415 22.8695 52.204 22.4196 52.1915 22.1197C52.179 21.7073 52.304 21.2074 52.554 20.87C53.7162 19.2703 54.9409 17.6956 56.1532 16.1335C56.3281 15.896 56.5656 15.7085 56.803 15.5211C57.3404 15.1087 58.0403 14.7462 58.5152 15.3711C58.7901 15.7335 58.8776 16.6583 58.6152 16.9708C57.0155 18.9204 55.2909 20.7825 53.5787 22.6446C53.4413 22.807 53.1663 23.0695 52.7164 22.982Z" fill="#CD4631"/>
<path d="M12.6502 20.27C13.35 20.4825 13.8874 20.6074 14.3998 20.7949C15.887 21.3323 17.3742 21.8822 18.8489 22.4446C19.2613 22.607 19.6987 22.7695 20.0361 23.0319C20.2736 23.2194 20.536 23.6943 20.4485 23.8693C20.2985 24.1567 20.0736 24.5191 19.5612 24.4816C19.3487 24.4691 19.0738 24.4566 18.8364 24.3941C17.1617 23.9442 15.4871 23.5193 13.8249 23.0194C13.2625 22.857 12.6752 22.6195 12.2253 22.2571C11.9003 21.9947 11.6004 21.4073 11.6879 21.0574C11.7629 20.7324 12.0378 20.27 12.6502 20.27Z" fill="#CD4631"/>
<path d="M35.5203 15.0959C35.5078 15.2459 35.4953 15.3959 35.4454 15.5333C35.2329 16.1457 35.0954 16.8331 34.2331 16.7706C33.3208 16.7081 33.2833 15.9582 33.2958 15.3459C33.3333 13.8712 33.4708 12.3965 33.5832 10.9093C33.6332 10.3719 33.6957 9.82204 33.8457 9.30965C33.9957 8.78476 34.2081 8.24737 34.933 8.33486C35.6078 8.42234 35.8328 8.87224 35.8453 9.47212C35.8453 10.122 35.6453 13.8712 35.5203 15.0959Z" fill="#CD4631"/>
</svg>
