<svg width="86" height="84" viewBox="0 0 86 84" fill="none" xmlns="http://www.w3.org/2000/svg">
<path d="M40.58 40.983C40.9227 39.6119 41.1227 38.4978 41.4941 37.4123C45.2076 26.4432 51.1777 16.6739 57.9763 7.39011C58.7761 6.30462 59.7759 5.27627 60.8899 4.5907C61.4898 4.21935 62.6896 4.27648 63.3751 4.64783C63.8893 4.93349 64.2607 6.04753 64.1464 6.67597C63.9464 7.87572 63.518 9.10403 62.9181 10.1895C58.9761 17.3594 55.0055 24.5008 50.9778 31.6136C49.4638 34.2701 47.8641 36.8981 46.293 39.5262C45.7789 40.4117 45.2075 41.2686 44.6077 42.0685C43.9507 42.9826 42.9509 43.5253 41.9511 42.9254C41.2941 42.5255 40.58 42.2399 40.58 40.983Z" fill="#CD4631"/>
<path d="M81.0285 83.5179C79.6574 83.2894 78.0577 83.118 76.5152 82.7752C70.4308 81.404 64.3463 80.0329 58.2905 78.6046C56.9765 78.2904 55.691 77.7477 54.5199 77.1192C52.9488 76.2909 52.406 75.1197 52.6631 73.8342C52.9202 72.5488 53.9485 71.749 55.7482 71.7204C56.9765 71.6918 58.2905 71.7204 59.4617 72.006C67.1458 73.9485 74.8298 75.9481 82.4854 77.9762C83.3423 78.2047 84.2278 78.6046 84.8849 79.1759C86.5416 80.5756 86.0275 82.7752 83.9136 83.3179C83.0852 83.5179 82.1426 83.4322 81.0285 83.5179Z" fill="#CD4631"/>
<path d="M0.759864 6.93365C0.874126 5.59108 1.15978 4.24851 1.50256 2.9345C1.81678 1.76332 2.61661 0.934924 3.90206 0.820662C4.98754 0.734966 6.15872 1.82045 6.33011 3.24872C6.55863 5.1626 6.75859 7.10505 6.6729 9.01893C6.41581 14.7891 6.04446 20.5879 5.64454 26.3581C5.50172 28.272 5.24463 30.1859 4.93041 32.0998C4.81615 32.7568 4.58762 33.4423 4.21627 33.9565C3.21649 35.4133 1.3883 35.2991 0.674169 33.728C0.274254 32.8425 0.102862 31.757 0.102862 30.7857C-0.0399649 27.5864 0.388514 11.6755 0.759864 6.93365Z" fill="#CD4631"/>
</svg>
