<svg width="42" height="44" viewBox="0 0 42 44" fill="none" xmlns="http://www.w3.org/2000/svg">
<path d="M20.6929 28.6908C20.1083 30.3545 19.5996 32.0819 19.126 33.7837C18.2932 30.8731 16.4696 28.3914 13.5296 26.5483C13.3199 26.4157 13.1068 26.2798 12.8901 26.1416C11.2298 25.0826 9.35419 23.8862 7.13855 23.0201C10.2275 22.0685 12.7873 20.6398 14.9076 18.801C17.0724 16.9234 18.6911 14.6946 19.9458 12.2919C19.9331 12.6459 19.9254 12.998 19.9248 13.3441C19.7967 17.8817 23.2845 20.3482 26.3317 21.6809C25.4207 22.1584 24.5366 22.8219 23.904 23.6645C23.8793 23.6941 23.8544 23.7239 23.8292 23.754C22.792 24.9951 21.3764 26.689 20.6929 28.6908ZM3.16661 21.7128C3.16671 21.7129 3.16857 21.7156 3.17184 21.721C3.16814 21.7155 3.1665 21.7128 3.16661 21.7128Z" stroke="#CD4631" stroke-width="5.48455"/>
</svg>
