<svg width="26" height="27" viewBox="0 0 26 27" fill="none" xmlns="http://www.w3.org/2000/svg">
<path d="M9.21911 11.4669C10.2373 10.5838 11.0635 9.58059 11.745 8.50533C11.9734 10.8006 13.6644 12.1864 15.2797 13.0124C14.898 13.2771 14.5432 13.5974 14.2587 13.9743C14.2424 13.9939 14.2258 14.0136 14.2091 14.0336C13.5747 14.7922 12.6608 15.8851 12.2157 17.1874C11.9751 17.8721 11.7544 18.5768 11.5471 19.2826C10.9088 17.8573 9.84566 16.6301 8.3234 15.6756C8.19344 15.5934 8.06077 15.5087 7.92525 15.4222C7.12142 14.9092 6.21739 14.3321 5.1826 13.8413C6.74368 13.2544 8.07922 12.4555 9.21911 11.4669Z" stroke="black" stroke-width="4.11341"/>
</svg>
