<svg width="108" height="111" viewBox="0 0 108 111" fill="none" xmlns="http://www.w3.org/2000/svg">
<path d="M49.9867 92.578C49.5023 94.3656 49.0233 96.1335 48.5409 97.8697C48.3195 95.2645 48.0512 92.5568 47.612 89.8318L47.5993 89.7533L47.5841 89.6752C45.9793 81.4606 41.4143 74.4829 33.309 69.4024C32.7639 69.058 32.2138 68.7074 31.6576 68.3531C25.1772 64.2243 17.8836 59.5774 8.40472 57.9587C20.3123 55.8704 29.4959 51.4888 36.624 45.3067C44.2208 38.7182 49.1773 30.3498 52.7279 21.3172L52.7327 21.305L52.7374 21.2928C53.5448 19.2054 54.1819 16.9773 54.7286 14.7954C54.6577 15.928 54.5869 17.0681 54.516 18.2229L54.5152 18.2356L54.5145 18.2484C54.4352 19.6618 54.3234 21.1641 54.2079 22.716C53.9636 25.9979 53.7028 29.5014 53.6989 32.8553C53.3644 44.1344 62.7665 50.0769 71.0395 53.2851L71.0795 53.3006L71.1197 53.3154C72.4428 53.8015 73.8056 54.2395 75.2072 54.6163C74.402 54.8253 73.606 55.0429 72.8188 55.2649L72.759 55.2818L72.6995 55.3002C69.4413 56.311 65.7722 58.3965 63.6043 61.314C63.5513 61.3776 63.498 61.4414 63.4445 61.5055C60.6729 64.8248 57.2199 68.9602 55.5785 73.7757C53.4085 79.9504 51.6655 86.3828 49.9867 92.578ZM57.4223 4.70108C57.4223 4.70118 57.4196 4.70279 57.4141 4.70565C57.4196 4.70242 57.4223 4.70099 57.4223 4.70108ZM55.3823 4.01364C55.3823 4.01354 55.3824 4.01567 55.3824 4.02015L55.3823 4.01364Z" stroke="#81ADC8" stroke-width="9.59797"/>
</svg>
