<svg width="17" height="17" viewBox="0 0 17 17" fill="none" xmlns="http://www.w3.org/2000/svg">
<path d="M4.51052 10.5783C4.59087 9.913 4.86373 9.54051 5.37792 9.15866C6.11363 8.64151 7.03265 8.93404 7.03265 8.93404V7.19861C7.25607 7.1929 7.47958 7.20615 7.70057 7.23819V9.47152C7.70057 9.47152 6.78183 9.17898 6.04612 9.6964C5.5322 10.078 5.25879 10.4507 5.17872 11.116C5.17621 11.4773 5.244 11.9495 5.5562 12.3578C5.47901 12.3183 5.40033 12.2732 5.32017 12.2225C4.63244 11.7607 4.50717 11.0679 4.51052 10.5783ZM11.4952 3.98981C10.9891 3.43522 10.7977 2.87528 10.7285 2.48193H11.3652C11.3652 2.48193 11.2382 3.5133 12.1634 4.52755L12.1762 4.54119C11.9269 4.38434 11.6982 4.19921 11.4952 3.98981ZM14.5622 5.56212V7.75053C14.5622 7.75053 13.7498 7.71871 13.1485 7.56576C12.309 7.35184 11.7695 7.02373 11.7695 7.02373C11.7695 7.02373 11.3967 6.78976 11.3666 6.77345V11.2925C11.3666 11.5441 11.2977 12.1725 11.0876 12.6966C10.8133 13.3823 10.3901 13.8323 10.3123 13.9243C10.3123 13.9243 9.79751 14.5326 8.88937 14.9423C8.0708 15.3118 7.3521 15.3025 7.13727 15.3118C7.13727 15.3118 5.8949 15.361 4.77696 14.6345C4.53521 14.4744 4.30955 14.293 4.10291 14.0927L4.10849 14.0968C5.2267 14.8233 6.4688 14.7741 6.4688 14.7741C6.6839 14.7647 7.4026 14.7741 8.2209 14.4045C9.12819 13.9949 9.64378 13.3865 9.64378 13.3865C9.72078 13.2945 10.146 12.8445 10.4191 12.1586C10.6286 11.6348 10.6981 11.0061 10.6981 10.7545V6.23597C10.7282 6.25255 11.1007 6.48653 11.1007 6.48653C11.1007 6.48653 11.6406 6.8149 12.4801 7.02855C13.0816 7.1815 13.8937 7.21332 13.8937 7.21332V5.49848C14.1716 5.56079 14.4085 5.57763 14.5622 5.56212Z" fill="black"/>
<path d="M13.8941 5.49848V7.21279C13.8941 7.21279 13.0819 7.18096 12.4804 7.02801C11.6409 6.81409 11.1011 6.48599 11.1011 6.48599C11.1011 6.48599 10.7286 6.25202 10.6985 6.23544V10.755C10.6985 11.0067 10.6296 11.6353 10.4195 12.1592C10.1452 12.845 9.72199 13.2951 9.64415 13.3871C9.64415 13.3871 9.12912 13.9954 8.22126 14.4051C7.40297 14.7746 6.68427 14.7653 6.46917 14.7746C6.46917 14.7746 5.22707 14.8238 4.10885 14.0973L4.10327 14.0933C3.98521 13.979 3.87408 13.8582 3.77043 13.7317C3.41359 13.2967 3.19486 12.7822 3.1399 12.6354C3.1398 12.6348 3.1398 12.6342 3.1399 12.6335C3.05146 12.3784 2.86564 11.7658 2.89103 11.1725C2.93595 10.1256 3.30423 9.48302 3.4016 9.32204C3.65947 8.88307 3.99487 8.49031 4.39287 8.16126C4.74408 7.87731 5.14217 7.65139 5.5708 7.49275C6.03416 7.3065 6.53034 7.20667 7.03274 7.19861V8.93404C7.03274 8.93404 6.11372 8.64258 5.37829 9.15866C4.8641 9.54051 4.59124 9.913 4.51089 10.5783C4.50754 11.0679 4.63281 11.7607 5.31998 12.2228C5.40014 12.2736 5.47882 12.3187 5.55601 12.3581C5.67606 12.5142 5.82217 12.6501 5.98845 12.7605C6.65972 13.1854 7.22218 13.2151 7.94143 12.9392C8.42103 12.7547 8.78205 12.3389 8.94945 11.8781C9.05463 11.5904 9.05323 11.3008 9.05323 11.0013V2.48193H10.7272C10.7964 2.87528 10.9878 3.43522 11.4939 3.98981C11.6969 4.19921 11.9256 4.38434 12.1749 4.54119C12.2486 4.61739 12.6252 4.99416 13.1087 5.22546C13.3587 5.34502 13.6223 5.43663 13.8941 5.49848Z" fill="black"/>
<path d="M2.47375 12.1025V12.1039L2.51552 12.2171C2.51073 12.2039 2.4952 12.1638 2.47375 12.1025Z" fill="black"/>
<path d="M5.57066 7.49291C5.14203 7.65154 4.74395 7.87746 4.39274 8.16141C3.99461 8.49121 3.6593 8.88479 3.40174 9.3246C3.30437 9.48504 2.9361 10.1281 2.89118 11.175C2.86579 11.7684 3.0516 12.381 3.14004 12.6361C3.13995 12.6367 3.13995 12.6373 3.14004 12.638C3.19584 12.7834 3.41374 13.2979 3.77058 13.7343C3.87423 13.8608 3.98536 13.9815 4.10342 14.0958C3.72515 13.8451 3.3878 13.5419 3.10238 13.1963C2.74861 12.765 2.53044 12.2558 2.47352 12.1056C2.47345 12.1045 2.47345 12.1034 2.47352 12.1024V12.1005C2.3848 11.8457 2.19843 11.2328 2.22438 10.6386C2.2693 9.59174 2.63757 8.94917 2.73494 8.7882C2.99242 8.34834 3.32775 7.95474 3.72594 7.625C4.07707 7.34096 4.47518 7.11503 4.90386 6.9565C5.17125 6.85017 5.44981 6.77173 5.73471 6.72253C6.16408 6.65069 6.6026 6.64446 7.034 6.70408V7.19877C6.53114 7.20665 6.03446 7.30649 5.57066 7.49291Z" fill="black"/>
<path d="M10.7287 2.48235H9.05473V11.002C9.05473 11.3015 9.05473 11.5903 8.95095 11.8788C8.78188 12.3393 8.42225 12.7551 7.94293 12.9396C7.2234 13.2166 6.66094 13.1859 5.98996 12.761C5.82339 12.651 5.6769 12.5155 5.5564 12.3599C6.12806 12.6521 6.63974 12.647 7.27362 12.4032C7.75266 12.2187 8.11284 11.8029 8.28136 11.3421C8.38682 11.0544 8.38542 10.7648 8.38542 10.4656V1.94434H10.6969C10.6969 1.94434 10.671 2.15612 10.7287 2.48235ZM13.8942 5.02479V5.49889C13.6228 5.43695 13.3598 5.34534 13.1102 5.22588C12.6267 4.99458 12.2501 4.61781 12.1764 4.5416C12.2619 4.59538 12.3506 4.64431 12.442 4.68813C13.0299 4.96944 13.6088 5.0534 13.8942 5.02479Z" fill="black"/>
</svg>
